<svg xmlns="http://www.w3.org/2000/svg" viewBox="3 1 26 26" shape-rendering="crispEdges">
  <title>Pixel portrait of Muhammad Rayyan</title>
  <rect x="8" y="9" width="16" height="13" fill="#dba77e"/>
  <rect x="10" y="20" width="12" height="5" fill="#dba77e"/>
  <rect x="7" y="14" width="2" height="5" fill="#bd805e"/>
  <rect x="23" y="14" width="2" height="5" fill="#bd805e"/>
  <rect x="10" y="9" width="11" height="12" fill="#edbd94"/>
  <rect x="8" y="5" width="16" height="6" fill="#242625"/>
  <rect x="10" y="3" width="4" height="3" fill="#242625"/>
  <rect x="15" y="2" width="4" height="4" fill="#242625"/>
  <rect x="20" y="3" width="3" height="3" fill="#242625"/>
  <rect x="7" y="6" width="3" height="5" fill="#242625"/>
  <rect x="6" y="9" width="3" height="4" fill="#242625"/>
  <rect x="23" y="6" width="3" height="5" fill="#242625"/>
  <rect x="24" y="10" width="2" height="3" fill="#242625"/>
  <rect x="8" y="11" width="2" height="5" fill="#242625"/>
  <rect x="22" y="11" width="2" height="5" fill="#242625"/>
  <rect x="10" y="10" width="3" height="2" fill="#242625"/>
  <rect x="15" y="10" width="3" height="1" fill="#242625"/>
  <rect x="20" y="10" width="2" height="2" fill="#242625"/>
  <rect x="11" y="4" width="2" height="1" fill="#424745"/>
  <rect x="10" y="5" width="1" height="2" fill="#424745"/>
  <rect x="16" y="3" width="2" height="1" fill="#424745"/>
  <rect x="18" y="4" width="1" height="2" fill="#424745"/>
  <rect x="21" y="5" width="2" height="1" fill="#424745"/>
  <rect x="20" y="6" width="1" height="2" fill="#424745"/>
  <rect x="8" y="8" width="2" height="1" fill="#424745"/>
  <rect x="7" y="9" width="1" height="2" fill="#424745"/>
  <rect x="13" y="7" width="2" height="1" fill="#424745"/>
  <rect x="12" y="8" width="1" height="2" fill="#424745"/>
  <rect x="17" y="8" width="2" height="1" fill="#424745"/>
  <rect x="19" y="9" width="1" height="1" fill="#424745"/>
  <rect x="23" y="8" width="1" height="2" fill="#424745"/>
  <rect x="10" y="13" width="4" height="1" fill="#242625"/>
  <rect x="18" y="13" width="4" height="1" fill="#242625"/>
  <rect x="15" y="16" width="1" height="3" fill="#dba77e"/>
  <rect x="15" y="19" width="3" height="1" fill="#bd805e"/>
  <rect x="9" y="19" width="1" height="4" fill="#242625"/>
  <rect x="22" y="19" width="1" height="4" fill="#242625"/>
  <rect x="10" y="22" width="2" height="3" fill="#242625"/>
  <rect x="20" y="22" width="2" height="3" fill="#242625"/>
  <rect x="12" y="24" width="8" height="2" fill="#242625"/>
  <rect x="14" y="25" width="4" height="2" fill="#242625"/>
  <rect x="12" y="20" width="8" height="1" fill="#242625"/>
  <rect x="11" y="21" width="3" height="1" fill="#242625"/>
  <rect x="18" y="21" width="3" height="1" fill="#242625"/>
  <rect x="14" y="22" width="4" height="1" fill="#a46150"/>
  <rect x="15" y="23" width="2" height="1" fill="#242625"/>
  <rect x="10" y="15" width="4" height="2" fill="#fff8e9"/>
  <rect x="18" y="15" width="4" height="2" fill="#fff8e9"/>
  <rect x="11" y="15" width="2" height="2" fill="#242625"/>
  <rect x="19" y="15" width="2" height="2" fill="#242625"/>
</svg>
